<svg width="98" height="81" viewBox="0 0 98 81" fill="none" xmlns="http://www.w3.org/2000/svg">
<rect x="3.92676" width="93.3501" height="81" fill="url(#paint0_linear_798_1105)"/>
<path d="M6 3L52 5L95 3L93 42.5L95 80L52 78L6 80L7.5 42.5L6 3Z" fill="#061443"/>
<path d="M0 64.5676H73.0023V77.6803H0V64.5676Z" fill="#061443"/>
<path d="M1.23295 76.2438V66.062H2.46591V70.5961H7.89489V66.062H9.12784V76.2438H7.89489V71.6899H2.46591V76.2438H1.23295ZM17.1644 68.6075C17.1048 68.1037 16.8628 67.7126 16.4386 67.4342C16.0143 67.1558 15.494 67.0166 14.8775 67.0166C14.4267 67.0166 14.0323 67.0895 13.6942 67.2353C13.3595 67.3811 13.0977 67.5817 12.9087 67.8369C12.7231 68.0921 12.6303 68.3821 12.6303 68.7069C12.6303 68.9787 12.695 69.2123 12.8242 69.4079C12.9568 69.6001 13.1258 69.7609 13.3313 69.8901C13.5368 70.0161 13.7522 70.1205 13.9776 70.2034C14.203 70.2829 14.4102 70.3475 14.5991 70.3972L15.6332 70.6757C15.8983 70.7453 16.1933 70.8414 16.5181 70.964C16.8462 71.0866 17.1594 71.254 17.4577 71.4661C17.7594 71.6749 18.0079 71.9434 18.2035 72.2715C18.399 72.5997 18.4968 73.0024 18.4968 73.4796C18.4968 74.0298 18.3526 74.527 18.0643 74.9711C17.7792 75.4152 17.3616 75.7682 16.8114 76.0301C16.2646 76.2919 15.6 76.4228 14.8178 76.4228C14.0887 76.4228 13.4573 76.3052 12.9237 76.0698C12.3933 75.8345 11.9757 75.5064 11.6708 75.0855C11.3692 74.6645 11.1985 74.1757 11.1587 73.6188H12.4315C12.4646 74.0033 12.5939 74.3215 12.8192 74.5734C13.0479 74.822 13.3363 75.0076 13.6843 75.1302C14.0356 75.2495 14.4135 75.3092 14.8178 75.3092C15.2885 75.3092 15.7111 75.2329 16.0856 75.0805C16.4601 74.9247 16.7567 74.7093 16.9755 74.4342C17.1942 74.1558 17.3036 73.831 17.3036 73.4597C17.3036 73.1217 17.2092 72.8466 17.0202 72.6345C16.8313 72.4223 16.5827 72.25 16.2745 72.1174C15.9663 71.9848 15.6332 71.8688 15.2752 71.7694L14.0224 71.4114C13.2269 71.1828 12.5972 70.8563 12.1332 70.432C11.6692 70.0078 11.4371 69.4526 11.4371 68.7666C11.4371 68.1965 11.5913 67.6993 11.8995 67.2751C12.2111 66.8475 12.6287 66.5161 13.1523 66.2808C13.6793 66.0421 14.2676 65.9228 14.9173 65.9228C15.5735 65.9228 16.1568 66.0405 16.6673 66.2758C17.1777 66.5078 17.582 66.826 17.8803 67.2303C18.1819 67.6347 18.341 68.0937 18.3576 68.6075H17.1644ZM26.0922 68.6075C26.0325 68.1037 25.7905 67.7126 25.3663 67.4342C24.9421 67.1558 24.4217 67.0166 23.8052 67.0166C23.3545 67.0166 22.96 67.0895 22.622 67.2353C22.2872 67.3811 22.0254 67.5817 21.8365 67.8369C21.6509 68.0921 21.5581 68.3821 21.5581 68.7069C21.5581 68.9787 21.6227 69.2123 21.752 69.4079C21.8845 69.6001 22.0536 69.7609 22.2591 69.8901C22.4645 70.0161 22.68 70.1205 22.9054 70.2034C23.1307 70.2829 23.3379 70.3475 23.5268 70.3972L24.5609 70.6757C24.8261 70.7453 25.121 70.8414 25.4458 70.964C25.774 71.0866 26.0872 71.254 26.3855 71.4661C26.6871 71.6749 26.9357 71.9434 27.1312 72.2715C27.3268 72.5997 27.4245 73.0024 27.4245 73.4796C27.4245 74.0298 27.2804 74.527 26.992 74.9711C26.707 75.4152 26.2894 75.7682 25.7392 76.0301C25.1923 76.2919 24.5278 76.4228 23.7456 76.4228C23.0164 76.4228 22.385 76.3052 21.8514 76.0698C21.3211 75.8345 20.9035 75.5064 20.5985 75.0855C20.2969 74.6645 20.1262 74.1757 20.0865 73.6188H21.3592C21.3923 74.0033 21.5216 74.3215 21.747 74.5734C21.9757 74.822 22.264 75.0076 22.612 75.1302C22.9634 75.2495 23.3412 75.3092 23.7456 75.3092C24.2162 75.3092 24.6388 75.2329 25.0133 75.0805C25.3878 74.9247 25.6845 74.7093 25.9032 74.4342C26.122 74.1558 26.2314 73.831 26.2314 73.4597C26.2314 73.1217 26.1369 72.8466 25.948 72.6345C25.7591 72.4223 25.5105 72.25 25.2022 72.1174C24.894 71.9848 24.5609 71.8688 24.2029 71.7694L22.9501 71.4114C22.1547 71.1828 21.5249 70.8563 21.0609 70.432C20.5969 70.0078 20.3649 69.4526 20.3649 68.7666C20.3649 68.1965 20.519 67.6993 20.8272 67.2751C21.1388 66.8475 21.5564 66.5161 22.0801 66.2808C22.6071 66.0421 23.1954 65.9228 23.845 65.9228C24.5012 65.9228 25.0846 66.0405 25.595 66.2758C26.1054 66.5078 26.5098 66.826 26.8081 67.2303C27.1097 67.6347 27.2688 68.0937 27.2853 68.6075H26.0922ZM31.3011 76.2438L28.517 66.062H29.7699L31.8977 74.3546H31.9972L34.1648 66.062H35.5568L37.7244 74.3546H37.8239L39.9517 66.062H41.2045L38.4205 76.2438H37.1477L34.9006 68.1302H34.821L32.5739 76.2438H31.3011Z" fill="white"/>
<path d="M56.4261 69H55.1932C55.1203 68.6454 54.9927 68.3338 54.8104 68.0653C54.6314 67.7969 54.4126 67.5715 54.1541 67.3892C53.8989 67.2036 53.6155 67.0644 53.304 66.9716C52.9924 66.8788 52.6676 66.8324 52.3295 66.8324C51.7131 66.8324 51.1546 66.9882 50.6541 67.2997C50.157 67.6113 49.7609 68.0703 49.4659 68.6768C49.1742 69.2834 49.0284 70.0275 49.0284 70.9091C49.0284 71.7907 49.1742 72.5348 49.4659 73.1413C49.7609 73.7479 50.157 74.2069 50.6541 74.5185C51.1546 74.83 51.7131 74.9858 52.3295 74.9858C52.6676 74.9858 52.9924 74.9394 53.304 74.8466C53.6155 74.7538 53.8989 74.6162 54.1541 74.4339C54.4126 74.2483 54.6314 74.0213 54.8104 73.7528C54.9927 73.4811 55.1203 73.1695 55.1932 72.8182H56.4261C56.3333 73.3385 56.1643 73.8042 55.919 74.2152C55.6738 74.6262 55.3688 74.9759 55.0043 75.2642C54.6397 75.5492 54.2304 75.7663 53.7763 75.9155C53.3255 76.0646 52.8433 76.1392 52.3295 76.1392C51.4612 76.1392 50.6889 75.9271 50.0128 75.5028C49.3366 75.0786 48.8047 74.4754 48.4169 73.6932C48.0291 72.911 47.8352 71.983 47.8352 70.9091C47.8352 69.8352 48.0291 68.9072 48.4169 68.125C48.8047 67.3428 49.3366 66.7396 50.0128 66.3153C50.6889 65.8911 51.4612 65.679 52.3295 65.679C52.8433 65.679 53.3255 65.7536 53.7763 65.9027C54.2304 66.0518 54.6397 66.2706 55.0043 66.5589C55.3688 66.844 55.6738 67.192 55.919 67.603C56.1643 68.0107 56.3333 68.4763 56.4261 69ZM61.3617 76.1591C60.6723 76.1591 60.0674 75.995 59.5471 75.6669C59.03 75.3388 58.6257 74.8797 58.334 74.2898C58.0456 73.6998 57.9015 73.0104 57.9015 72.2216C57.9015 71.4261 58.0456 70.7318 58.334 70.1385C58.6257 69.5452 59.03 69.0845 59.5471 68.7564C60.0674 68.4283 60.6723 68.2642 61.3617 68.2642C62.0511 68.2642 62.6543 68.4283 63.1713 68.7564C63.6917 69.0845 64.0961 69.5452 64.3844 70.1385C64.6761 70.7318 64.8219 71.4261 64.8219 72.2216C64.8219 73.0104 64.6761 73.6998 64.3844 74.2898C64.0961 74.8797 63.6917 75.3388 63.1713 75.6669C62.6543 75.995 62.0511 76.1591 61.3617 76.1591ZM61.3617 75.1051C61.8854 75.1051 62.3162 74.9709 62.6543 74.7024C62.9924 74.4339 63.2426 74.081 63.405 73.6435C63.5674 73.206 63.6486 72.732 63.6486 72.2216C63.6486 71.7112 63.5674 71.2356 63.405 70.7947C63.2426 70.3539 62.9924 69.9976 62.6543 69.7259C62.3162 69.4541 61.8854 69.3182 61.3617 69.3182C60.838 69.3182 60.4071 69.4541 60.0691 69.7259C59.731 69.9976 59.4808 70.3539 59.3184 70.7947C59.156 71.2356 59.0748 71.7112 59.0748 72.2216C59.0748 72.732 59.156 73.206 59.3184 73.6435C59.4808 74.081 59.731 74.4339 60.0691 74.7024C60.4071 74.9709 60.838 75.1051 61.3617 75.1051ZM69.4964 76.1591C68.8601 76.1591 68.2983 75.9983 67.8111 75.6768C67.3239 75.352 66.9427 74.8946 66.6676 74.3047C66.3925 73.7114 66.255 73.0104 66.255 72.2017C66.255 71.3996 66.3925 70.7036 66.6676 70.1136C66.9427 69.5237 67.3255 69.0679 67.8161 68.7464C68.3066 68.425 68.8733 68.2642 69.5163 68.2642C70.0135 68.2642 70.4063 68.3471 70.6946 68.5128C70.9863 68.6752 71.2083 68.8608 71.3608 69.0696C71.5166 69.2751 71.6375 69.4441 71.7237 69.5767H71.8232V65.8182H72.9964V76H71.8629V74.8267H71.7237C71.6375 74.9659 71.5149 75.1416 71.3558 75.3537C71.1967 75.5625 70.9697 75.7498 70.6747 75.9155C70.3797 76.0779 69.987 76.1591 69.4964 76.1591ZM69.6555 75.1051C70.1262 75.1051 70.5239 74.9825 70.8487 74.7372C71.1735 74.4886 71.4205 74.1456 71.5895 73.7081C71.7585 73.2673 71.843 72.7585 71.843 72.1818C71.843 71.6117 71.7602 71.1129 71.5945 70.6854C71.4287 70.2545 71.1835 69.9197 70.8587 69.6811C70.5339 69.4392 70.1328 69.3182 69.6555 69.3182C69.1584 69.3182 68.7441 69.4458 68.4126 69.701C68.0845 69.9529 67.8376 70.2959 67.6719 70.7301C67.5095 71.161 67.4283 71.6449 67.4283 72.1818C67.4283 72.7254 67.5111 73.2192 67.6768 73.6634C67.8459 74.1042 68.0945 74.4555 68.4226 74.7173C68.754 74.9759 69.165 75.1051 69.6555 75.1051ZM78.5099 76.1591C77.7741 76.1591 77.1394 75.9967 76.6058 75.6719C76.0755 75.3438 75.6662 74.8864 75.3778 74.2997C75.0928 73.7098 74.9503 73.0237 74.9503 72.2415C74.9503 71.4593 75.0928 70.7699 75.3778 70.1733C75.6662 69.5734 76.0672 69.1061 76.581 68.7713C77.098 68.4332 77.7012 68.2642 78.3906 68.2642C78.7884 68.2642 79.1811 68.3305 79.5689 68.4631C79.9567 68.5956 80.3097 68.8111 80.6278 69.1094C80.946 69.4044 81.1996 69.7955 81.3885 70.2827C81.5774 70.7699 81.6719 71.3698 81.6719 72.0824V72.5795H75.7855V71.5653H80.4787C80.4787 71.1345 80.3925 70.75 80.2202 70.4119C80.0511 70.0739 79.8092 69.8071 79.4943 69.6115C79.1828 69.416 78.8149 69.3182 78.3906 69.3182C77.9233 69.3182 77.5189 69.4342 77.1776 69.6662C76.8395 69.8949 76.5793 70.1932 76.397 70.5611C76.2147 70.929 76.1236 71.3234 76.1236 71.7443V72.4205C76.1236 72.9972 76.223 73.486 76.4219 73.8871C76.6241 74.2848 76.9041 74.5881 77.2621 74.7969C77.62 75.0024 78.036 75.1051 78.5099 75.1051C78.8182 75.1051 79.0966 75.062 79.3452 74.9759C79.5971 74.8864 79.8142 74.7538 79.9964 74.5781C80.1787 74.3991 80.3196 74.1771 80.419 73.9119L81.5526 74.2301C81.4332 74.6146 81.2327 74.9527 80.951 75.2443C80.6693 75.5327 80.3213 75.758 79.907 75.9205C79.4927 76.0795 79.027 76.1591 78.5099 76.1591Z" fill="white"/>
<defs>
<linearGradient id="paint0_linear_798_1105" x1="15.9748" y1="11.8678" x2="63.1832" y2="81.5286" gradientUnits="userSpaceOnUse">
<stop offset="0.105" stop-color="#092477"/>
<stop offset="1" stop-color="#69FFF0"/>
</linearGradient>
</defs>
</svg>
